<svg version="1.2" width="60mm" height="60mm" viewBox="0 0 6000 6000" preserveAspectRatio="xMidYMid" fill-rule="evenodd" stroke-width="28.222" stroke-linejoin="round" xmlns="http://www.w3.org/2000/svg" xmlns:ooo="http://xml.openoffice.org/svg/export" xmlns:xlink="http://www.w3.org/1999/xlink" xmlns:presentation="http://sun.com/xmlns/staroffice/presentation" xmlns:smil="http://www.w3.org/2001/SMIL20/" xmlns:anim="urn:oasis:names:tc:opendocument:xmlns:animation:1.0" xml:space="preserve">
 <defs class="ClipPathGroup">
  <clipPath id="presentation_clip_path" clipPathUnits="userSpaceOnUse">
   <rect x="0" y="0" width="6000" height="6000"/>
  </clipPath>
  <clipPath id="presentation_clip_path_shrink" clipPathUnits="userSpaceOnUse">
   <rect x="6" y="6" width="5988" height="5988"/>
  </clipPath>
 </defs>
 <defs class="TextShapeIndex">
  <g ooo:slide="id1" ooo:id-list="id3 id4 id5 id6 id7 id8 id9 id10"/>
 </defs>
 <defs class="EmbeddedBulletChars">
  <g id="bullet-char-template(57356)" transform="scale(0.00048828125,-0.00048828125)">
   <path d="M 580,1141 L 1163,571 580,0 -4,571 580,1141 Z"/>
  </g>
  <g id="bullet-char-template(57354)" transform="scale(0.00048828125,-0.00048828125)">
   <path d="M 8,1128 L 1137,1128 1137,0 8,0 8,1128 Z"/>
  </g>
  <g id="bullet-char-template(10146)" transform="scale(0.00048828125,-0.00048828125)">
   <path d="M 174,0 L 602,739 174,1481 1456,739 174,0 Z M 1358,739 L 309,1346 659,739 1358,739 Z"/>
  </g>
  <g id="bullet-char-template(10132)" transform="scale(0.00048828125,-0.00048828125)">
   <path d="M 2015,739 L 1276,0 717,0 1260,543 174,543 174,936 1260,936 717,1481 1274,1481 2015,739 Z"/>
  </g>
  <g id="bullet-char-template(10007)" transform="scale(0.00048828125,-0.00048828125)">
   <path d="M 0,-2 C -7,14 -16,27 -25,37 L 356,567 C 262,823 215,952 215,954 215,979 228,992 255,992 264,992 276,990 289,987 310,991 331,999 354,1012 L 381,999 492,748 772,1049 836,1024 860,1049 C 881,1039 901,1025 922,1006 886,937 835,863 770,784 769,783 710,716 594,584 L 774,223 C 774,196 753,168 711,139 L 727,119 C 717,90 699,76 672,76 641,76 570,178 457,381 L 164,-76 C 142,-110 111,-127 72,-127 30,-127 9,-110 8,-76 1,-67 -2,-52 -2,-32 -2,-23 -1,-13 0,-2 Z"/>
  </g>
  <g id="bullet-char-template(10004)" transform="scale(0.00048828125,-0.00048828125)">
   <path d="M 285,-33 C 182,-33 111,30 74,156 52,228 41,333 41,471 41,549 55,616 82,672 116,743 169,778 240,778 293,778 328,747 346,684 L 369,508 C 377,444 397,411 428,410 L 1163,1116 C 1174,1127 1196,1133 1229,1133 1271,1133 1292,1118 1292,1087 L 1292,965 C 1292,929 1282,901 1262,881 L 442,47 C 390,-6 338,-33 285,-33 Z"/>
  </g>
  <g id="bullet-char-template(9679)" transform="scale(0.00048828125,-0.00048828125)">
   <path d="M 813,0 C 632,0 489,54 383,161 276,268 223,411 223,592 223,773 276,916 383,1023 489,1130 632,1184 813,1184 992,1184 1136,1130 1245,1023 1353,916 1407,772 1407,592 1407,412 1353,268 1245,161 1136,54 992,0 813,0 Z"/>
  </g>
  <g id="bullet-char-template(8226)" transform="scale(0.00048828125,-0.00048828125)">
   <path d="M 346,457 C 273,457 209,483 155,535 101,586 74,649 74,723 74,796 101,859 155,911 209,963 273,989 346,989 419,989 480,963 531,910 582,859 608,796 608,723 608,648 583,586 532,535 482,483 420,457 346,457 Z"/>
  </g>
  <g id="bullet-char-template(8211)" transform="scale(0.00048828125,-0.00048828125)">
   <path d="M -4,459 L 1135,459 1135,606 -4,606 -4,459 Z"/>
  </g>
  <g id="bullet-char-template(61548)" transform="scale(0.00048828125,-0.00048828125)">
   <path d="M 173,740 C 173,903 231,1043 346,1159 462,1274 601,1332 765,1332 928,1332 1067,1274 1183,1159 1299,1043 1357,903 1357,740 1357,577 1299,437 1183,322 1067,206 928,148 765,148 601,148 462,206 346,322 231,437 173,577 173,740 Z"/>
  </g>
 </defs>
 <defs class="TextEmbeddedBitmaps"/>
 <g>
  <g id="id2" class="Master_Slide">
   <g id="bg-id2" class="Background"/>
   <g id="bo-id2" class="BackgroundObjects"/>
  </g>
 </g>
 <g class="SlideGroup">
  <g>
   <g id="container-id1">
    <g id="id1" class="Slide" clip-path="url(#presentation_clip_path)">
     <g class="Page">
      <g class="com.sun.star.drawing.ClosedBezierShape">
       <g id="id3">
        <rect class="BoundingBox" stroke="none" fill="none" x="537" y="238" width="4888" height="1504"/>
        <path fill="rgb(16,42,131)" stroke="none" d="M 537,262 L 904,262 C 986,262 1050,271 1093,290 1151,315 1202,360 1243,424 1285,488 1316,566 1338,659 1360,752 1371,866 1371,1004 1371,1123 1360,1226 1340,1313 1315,1418 1280,1504 1233,1569 1199,1619 1152,1658 1092,1685 1048,1706 989,1716 914,1716 L 537,1716 537,262 Z M 537,262 L 537,262 Z M 737,508 L 737,1471 887,1471 C 943,1471 984,1467 1009,1457 1041,1446 1069,1426 1090,1397 1112,1369 1129,1322 1143,1257 1156,1192 1163,1103 1163,991 1163,877 1156,791 1143,731 1129,671 1110,624 1086,590 1061,557 1030,534 993,522 964,513 910,508 828,508 L 737,508 Z M 737,508 L 737,508 Z M 1500,999 C 1500,850 1515,725 1546,625 1569,551 1599,484 1639,426 1678,367 1721,323 1767,295 1829,256 1901,238 1982,238 2128,238 2246,304 2334,437 2422,569 2466,754 2466,992 2466,1226 2422,1410 2335,1542 2247,1675 2130,1741 1984,1741 1836,1741 1719,1675 1631,1543 1544,1411 1500,1230 1500,999 Z M 1500,999 L 1500,999 Z M 1707,988 C 1707,1153 1734,1278 1785,1363 1838,1448 1904,1490 1984,1490 2064,1490 2130,1448 2181,1364 2232,1279 2258,1153 2258,984 2258,817 2233,693 2183,611 2133,529 2067,488 1984,488 1901,488 1834,530 1783,613 1733,696 1707,820 1707,988 Z M 1707,988 L 1707,988 Z M 2624,1716 L 2624,262 2820,262 3228,1233 3228,262 3415,262 3415,1716 3213,1716 2811,768 2811,1716 2624,1716 Z M 2624,1716 L 2624,1716 Z M 4525,1716 L 4306,1716 4219,1386 3822,1386 3740,1716 3526,1716 3914,262 4127,262 4525,1716 Z M 4525,1716 L 4525,1716 Z M 4155,1141 L 4018,601 3883,1141 4155,1141 Z M 4155,1141 L 4155,1141 Z M 4630,262 L 4831,262 4831,1050 C 4831,1175 4834,1256 4839,1293 4847,1353 4868,1400 4900,1436 4932,1472 4977,1490 5033,1490 5090,1490 5133,1473 5162,1439 5191,1405 5208,1363 5214,1314 5220,1264 5223,1182 5223,1067 L 5223,262 5424,262 5424,1026 C 5424,1201 5418,1324 5407,1396 5397,1468 5377,1529 5347,1579 5318,1628 5279,1667 5230,1697 5182,1726 5118,1741 5039,1741 4944,1741 4872,1725 4823,1693 4774,1661 4735,1619 4706,1568 4678,1517 4659,1463 4650,1407 4637,1324 4630,1201 4630,1038 L 4630,262 Z"/>
       </g>
      </g>
      <g class="com.sun.star.drawing.ClosedBezierShape">
       <g id="id4">
        <rect class="BoundingBox" stroke="none" fill="none" x="498" y="2093" width="4951" height="938"/>
        <path fill="rgb(16,42,131)" stroke="none" d="M 719,2686 C 732,2726 743,2781 787,2803 866,2839 1002,2772 1064,2730 L 1569,2330 C 1701,2219 1819,2103 2002,2097 2238,2090 2403,2271 2561,2414 2714,2551 2901,2790 3128,2658 L 3235,2579 C 3469,2399 3706,2150 4028,2155 4157,2157 4283,2201 4384,2279 4579,2431 4715,2630 4937,2751 5074,2827 5174,2737 5261,2642 L 5441,2767 C 5343,2874 5260,2968 5106,2991 4769,3041 4520,2695 4310,2503 4194,2396 4011,2316 3855,2406 L 3385,2737 C 3254,2840 3124,2929 2947,2914 2567,2882 2408,2452 2078,2321 2000,2291 1902,2333 1842,2378 1546,2602 1289,2969 891,3022 765,3039 644,2998 571,2894 535,2844 521,2789 504,2732 L 719,2686 Z"/>
        <path fill="none" stroke="rgb(16,42,131)" stroke-width="8" stroke-linejoin="miter" d="M 719,2686 C 732,2726 743,2781 787,2803 866,2839 1002,2772 1064,2730 L 1569,2330 C 1701,2219 1819,2103 2002,2097 2238,2090 2403,2271 2561,2414 2714,2551 2901,2790 3128,2658 L 3235,2579 C 3469,2399 3706,2150 4028,2155 4157,2157 4283,2201 4384,2279 4579,2431 4715,2630 4937,2751 5074,2827 5174,2737 5261,2642 L 5441,2767 C 5343,2874 5260,2968 5106,2991 4769,3041 4520,2695 4310,2503 4194,2396 4011,2316 3855,2406 L 3385,2737 C 3254,2840 3124,2929 2947,2914 2567,2882 2408,2452 2078,2321 2000,2291 1902,2333 1842,2378 1546,2602 1289,2969 891,3022 765,3039 644,2998 571,2894 535,2844 521,2789 504,2732 L 719,2686 Z"/>
       </g>
      </g>
      <g class="com.sun.star.drawing.OpenBezierShape">
       <g id="id5">
        <rect class="BoundingBox" stroke="none" fill="none" x="608" y="2200" width="4748" height="724"/>
        <path fill="none" stroke="rgb(16,42,131)" stroke-width="8" stroke-linejoin="miter" d="M 612,2708 C 736,3262 1493,2563 1650,2403 2355,1657 2612,3293 3310,2657 3599,2399 4008,2055 4389,2426 4609,2642 5018,3160 5351,2704"/>
       </g>
      </g>
      <g class="com.sun.star.drawing.ClosedBezierShape">
       <g id="id6">
        <rect class="BoundingBox" stroke="none" fill="none" x="498" y="2911" width="4951" height="938"/>
        <path fill="rgb(16,42,131)" stroke="none" d="M 719,3504 C 732,3544 743,3599 787,3621 866,3657 1002,3590 1064,3548 L 1569,3148 C 1701,3037 1819,2921 2002,2915 2238,2908 2403,3089 2561,3232 2714,3369 2901,3608 3128,3476 L 3235,3397 C 3469,3217 3706,2968 4028,2973 4157,2975 4283,3019 4384,3097 4579,3249 4715,3448 4937,3569 5074,3645 5174,3555 5261,3460 L 5441,3585 C 5343,3692 5260,3786 5106,3809 4769,3859 4520,3513 4310,3321 4194,3214 4011,3134 3855,3224 L 3385,3555 C 3254,3658 3124,3747 2947,3732 2567,3700 2408,3270 2078,3139 2000,3109 1902,3151 1842,3196 1546,3420 1289,3787 891,3840 765,3857 644,3816 571,3712 535,3662 521,3607 504,3550 L 719,3504 Z"/>
        <path fill="none" stroke="rgb(16,42,131)" stroke-width="8" stroke-linejoin="miter" d="M 719,3504 C 732,3544 743,3599 787,3621 866,3657 1002,3590 1064,3548 L 1569,3148 C 1701,3037 1819,2921 2002,2915 2238,2908 2403,3089 2561,3232 2714,3369 2901,3608 3128,3476 L 3235,3397 C 3469,3217 3706,2968 4028,2973 4157,2975 4283,3019 4384,3097 4579,3249 4715,3448 4937,3569 5074,3645 5174,3555 5261,3460 L 5441,3585 C 5343,3692 5260,3786 5106,3809 4769,3859 4520,3513 4310,3321 4194,3214 4011,3134 3855,3224 L 3385,3555 C 3254,3658 3124,3747 2947,3732 2567,3700 2408,3270 2078,3139 2000,3109 1902,3151 1842,3196 1546,3420 1289,3787 891,3840 765,3857 644,3816 571,3712 535,3662 521,3607 504,3550 L 719,3504 Z"/>
       </g>
      </g>
      <g class="com.sun.star.drawing.OpenBezierShape">
       <g id="id7">
        <rect class="BoundingBox" stroke="none" fill="none" x="608" y="3018" width="4748" height="724"/>
        <path fill="none" stroke="rgb(16,42,131)" stroke-width="8" stroke-linejoin="miter" d="M 612,3526 C 736,4080 1493,3381 1650,3221 2355,2475 2612,4111 3310,3475 3599,3217 4008,2873 4389,3244 4609,3460 5018,3978 5351,3522"/>
       </g>
      </g>
      <g class="com.sun.star.drawing.ClosedBezierShape">
       <g id="id8">
        <rect class="BoundingBox" stroke="none" fill="none" x="498" y="3690" width="4951" height="938"/>
        <path fill="rgb(16,42,131)" stroke="none" d="M 719,4283 C 732,4323 743,4378 787,4400 866,4436 1002,4369 1064,4327 L 1569,3927 C 1701,3816 1819,3700 2002,3694 2238,3687 2403,3868 2561,4011 2714,4148 2901,4387 3128,4255 L 3235,4176 C 3469,3996 3706,3747 4028,3752 4157,3754 4283,3798 4384,3876 4579,4028 4715,4227 4937,4348 5074,4424 5174,4334 5261,4239 L 5441,4364 C 5343,4471 5260,4565 5106,4588 4769,4638 4520,4292 4310,4100 4194,3993 4011,3913 3855,4003 L 3385,4334 C 3254,4437 3124,4526 2947,4511 2567,4479 2408,4049 2078,3918 2000,3888 1902,3930 1842,3975 1546,4199 1289,4566 891,4619 765,4636 644,4595 571,4491 535,4441 521,4386 504,4329 L 719,4283 Z"/>
        <path fill="none" stroke="rgb(16,42,131)" stroke-width="8" stroke-linejoin="miter" d="M 719,4283 C 732,4323 743,4378 787,4400 866,4436 1002,4369 1064,4327 L 1569,3927 C 1701,3816 1819,3700 2002,3694 2238,3687 2403,3868 2561,4011 2714,4148 2901,4387 3128,4255 L 3235,4176 C 3469,3996 3706,3747 4028,3752 4157,3754 4283,3798 4384,3876 4579,4028 4715,4227 4937,4348 5074,4424 5174,4334 5261,4239 L 5441,4364 C 5343,4471 5260,4565 5106,4588 4769,4638 4520,4292 4310,4100 4194,3993 4011,3913 3855,4003 L 3385,4334 C 3254,4437 3124,4526 2947,4511 2567,4479 2408,4049 2078,3918 2000,3888 1902,3930 1842,3975 1546,4199 1289,4566 891,4619 765,4636 644,4595 571,4491 535,4441 521,4386 504,4329 L 719,4283 Z"/>
       </g>
      </g>
      <g class="com.sun.star.drawing.OpenBezierShape">
       <g id="id9">
        <rect class="BoundingBox" stroke="none" fill="none" x="608" y="3797" width="4748" height="724"/>
        <path fill="none" stroke="rgb(16,42,131)" stroke-width="8" stroke-linejoin="miter" d="M 612,4305 C 736,4859 1493,4160 1650,4000 2355,3254 2612,4890 3310,4254 3599,3996 4008,3652 4389,4023 4609,4239 5018,4757 5351,4301"/>
       </g>
      </g>
      <g class="com.sun.star.drawing.ClosedBezierShape">
       <g id="id10">
        <rect class="BoundingBox" stroke="none" fill="none" x="539" y="4983" width="4885" height="799"/>
        <path fill="rgb(16,42,131)" stroke="none" d="M 539,4997 L 819,4997 C 874,4997 916,4999 943,5004 970,5009 994,5020 1016,5036 1037,5052 1055,5073 1070,5100 1084,5127 1091,5157 1091,5190 1091,5226 1082,5260 1065,5290 1047,5320 1023,5342 993,5357 1035,5371 1068,5395 1091,5428 1114,5461 1125,5500 1125,5544 1125,5579 1118,5613 1103,5647 1088,5680 1068,5706 1043,5726 1017,5746 985,5758 948,5762 924,5765 867,5767 777,5768 L 539,5768 539,4997 Z M 539,4997 L 539,4997 Z M 680,5125 L 680,5303 773,5303 C 828,5303 862,5302 876,5300 900,5297 919,5288 933,5273 946,5257 953,5237 953,5212 953,5189 947,5169 936,5154 923,5139 906,5130 882,5127 868,5126 828,5125 761,5125 L 680,5125 Z M 680,5125 L 680,5125 Z M 680,5432 L 680,5638 811,5638 C 862,5638 894,5636 908,5633 929,5629 946,5619 959,5602 973,5586 979,5564 979,5537 979,5514 974,5494 964,5478 954,5462 939,5450 920,5443 901,5436 859,5432 794,5432 L 680,5432 Z M 680,5432 L 680,5432 Z M 1245,5768 L 1245,4997 1765,4997 1765,5127 1386,5127 1386,5298 1738,5298 1738,5428 1386,5428 1386,5638 1779,5638 1779,5768 1245,5768 Z M 1245,5768 L 1245,5768 Z M 1870,5387 C 1870,5308 1881,5242 1902,5189 1918,5150 1940,5114 1967,5083 1995,5052 2025,5029 2058,5014 2102,4994 2152,4984 2209,4984 2312,4984 2395,5019 2457,5089 2519,5159 2550,5257 2550,5384 2550,5508 2519,5605 2458,5675 2396,5746 2314,5781 2211,5781 2107,5781 2024,5746 1962,5676 1901,5606 1870,5510 1870,5387 Z M 1870,5387 L 1870,5387 Z M 2016,5381 C 2016,5469 2034,5535 2071,5580 2108,5625 2154,5648 2211,5648 2267,5648 2313,5626 2349,5581 2385,5536 2404,5469 2404,5379 2404,5291 2386,5225 2351,5181 2316,5138 2269,5116 2211,5116 2152,5116 2105,5138 2069,5182 2034,5226 2016,5292 2016,5381 Z M 2016,5381 L 2016,5381 Z M 2986,5484 L 2986,5354 3291,5354 3291,5661 C 3261,5693 3219,5721 3162,5745 3106,5769 3049,5781 2991,5781 2918,5781 2854,5764 2800,5730 2745,5696 2704,5648 2677,5585 2650,5522 2636,5454 2636,5379 2636,5299 2651,5227 2682,5165 2712,5103 2757,5055 2816,5022 2861,4996 2917,4984 2984,4984 3071,4984 3139,5004 3188,5044 3236,5084 3268,5139 3282,5210 L 3142,5239 C 3132,5201 3113,5171 3086,5149 3059,5127 3025,5116 2984,5116 2922,5116 2873,5138 2836,5181 2800,5224 2782,5288 2782,5373 2782,5465 2800,5534 2837,5579 2874,5625 2922,5648 2982,5648 3012,5648 3042,5641 3072,5629 3101,5616 3127,5600 3148,5582 L 3148,5484 2986,5484 Z M 2986,5484 L 2986,5484 Z M 3422,5768 L 3422,4997 3720,4997 C 3795,4997 3849,5004 3883,5017 3917,5031 3944,5056 3965,5091 3985,5127 3995,5167 3995,5212 3995,5270 3980,5318 3949,5356 3918,5394 3872,5418 3810,5428 3841,5447 3866,5469 3886,5492 3906,5516 3933,5557 3966,5617 L 4052,5768 3883,5768 3781,5600 C 3744,5540 3719,5502 3706,5487 3693,5471 3678,5461 3663,5455 3648,5449 3625,5446 3592,5446 L 3564,5446 3564,5768 3422,5768 Z M 3422,5768 L 3422,5768 Z M 3564,5322 L 3668,5322 C 3736,5322 3778,5319 3795,5313 3812,5307 3825,5296 3835,5280 3845,5265 3849,5246 3849,5222 3849,5196 3843,5176 3831,5160 3818,5144 3800,5134 3777,5129 3766,5128 3731,5127 3674,5127 L 3564,5127 3564,5322 Z M 3564,5322 L 3564,5322 Z M 4761,5768 L 4607,5768 4546,5593 4266,5593 4208,5768 4057,5768 4331,4997 4481,4997 4761,5768 Z M 4761,5768 L 4761,5768 Z M 4501,5463 L 4404,5176 4310,5463 4501,5463 Z M 4501,5463 L 4501,5463 Z M 4836,4997 L 5095,4997 C 5153,4997 5197,5001 5228,5011 5269,5025 5304,5048 5333,5082 5363,5116 5385,5158 5400,5207 5416,5256 5423,5317 5423,5390 5423,5453 5416,5508 5402,5554 5384,5610 5359,5655 5327,5690 5302,5716 5269,5737 5227,5751 5196,5762 5154,5768 5102,5768 L 4836,5768 4836,4997 Z M 4836,4997 L 4836,4997 Z M 4977,5127 L 4977,5638 5083,5638 C 5122,5638 5151,5635 5169,5630 5191,5624 5211,5614 5226,5599 5241,5583 5253,5559 5263,5524 5272,5490 5277,5443 5277,5383 5277,5323 5272,5277 5263,5245 5253,5213 5240,5188 5223,5170 5205,5153 5183,5141 5157,5134 5137,5129 5099,5127 5041,5127 L 4977,5127 Z"/>
       </g>
      </g>
     </g>
    </g>
   </g>
  </g>
 </g>
</svg>