<?xml version="1.0" encoding="UTF-8"?>
<!DOCTYPE svg PUBLIC "-//W3C//DTD SVG 1.1//EN" "http://www.w3.org/Graphics/SVG/1.1/DTD/svg11.dtd">
<!-- Creator: CorelDRAW 2020 (64-Bit Evaluation Version) -->
<svg xmlns="http://www.w3.org/2000/svg" xml:space="preserve" width="50mm" height="10mm" version="1.1" style="shape-rendering:geometricPrecision; text-rendering:geometricPrecision; image-rendering:optimizeQuality; fill-rule:evenodd; clip-rule:evenodd"
viewBox="0 0 5000 1000"
 xmlns:xlink="http://www.w3.org/1999/xlink"
 xmlns:xodm="http://www.corel.com/coreldraw/odm/2003">
 <defs>
  <style type="text/css">
   <![CDATA[
    .str0 {stroke:#393185;stroke-width:7.62;stroke-miterlimit:2.61313}
    .fil1 {fill:none}
    .fil0 {fill:#393185}
   ]]>
  </style>
 </defs>
 <g id="Layer_x0020_1">
  <metadata id="CorelCorpID_0Corel-Layer"/>
  <path class="fil0 str0" d="M249.52 624.99c12.43,40.64 23.4,95.91 67.79,116.16 78.98,36.04 214.73,-29.58 276.56,-72.09l505.01 -399.49c132.06,-109.94 249.92,-226.27 433.65,-232.38 236.19,-7.84 400.46,173.95 559.01,316.28 152.72,137.09 339.19,375.87 566.16,243.8l106.72 -79.11c233.38,-179.74 470.89,-428.08 793.3,-423 128.56,2.03 254.43,45.98 355.37,123.99 195.32,150.96 331.21,350.34 553.55,471.7 136.45,74.48 236.81,-14.79 323.36,-109.31l179.76 125.26c-97.98,105.5 -181.03,199.65 -334.32,222.42 -337.54,50.15 -585.73,-294.58 -795.8,-486.79 -116.41,-106.53 -299.84,-185.86 -455.37,-97.23l-469.76 331.05c-130.98,101.76 -261.09,190.92 -437.6,175.96 -379.95,-32.18 -538.68,-460.95 -868.97,-590.47 -77.66,-30.44 -175.74,10.27 -235.64,55.6 -295.67,223.77 -552.66,589.88 -951.09,643.46 -126.46,17 -247.14,-24.27 -320.35,-128.47 -35.33,-50.28 -49.32,-103.89 -67.13,-161.15l215.79 -46.19z"/>
  <path class="fil1 str0" d="M141.62 648.08c124.26,551.81 881.9,-144.8 1038.24,-305.25 705.53,-743.57 962.09,888.36 1659.6,254.38 288.62,-258.3 697.5,-602.68 1078.33,-230.9 220.47,215.24 629.35,731.83 962.08,277.86"/>
 </g>
</svg>
