<svg xmlns="http://www.w3.org/2000/svg" 
   viewBox="0 0 5000 2600"
   style="shape-rendering:geometricPrecision; text-rendering:geometricPrecision; image-rendering:optimizeQuality; fill-rule:evenodd; clip-rule:evenodd"
   height="26mm"
   width="50mm"
   xml:space="preserve"><metadata
     id="metadata24"></metadata><defs
     id="defs4"><style
       id="style2"
       type="text/css"><![CDATA[
    .str0 {stroke:#393185;stroke-width:7.62;stroke-miterlimit:2.61313}
    .fil1 {fill:none}
    .fil0 {fill:#393185}
   ]]></style></defs><g
     id="Layer_x0020_1"><metadata
       id="CorelCorpID_0Corel-Layer" /><path
       id="path7"
       d="M249.52 624.99c12.43,40.64 23.4,95.91 67.79,116.16 78.98,36.04 214.73,-29.58 276.56,-72.09l505.01 -399.49c132.06,-109.94 249.92,-226.27 433.65,-232.38 236.19,-7.84 400.46,173.95 559.01,316.28 152.72,137.09 339.19,375.87 566.16,243.8l106.72 -79.11c233.38,-179.74 470.89,-428.08 793.3,-423 128.56,2.03 254.43,45.98 355.37,123.99 195.32,150.96 331.21,350.34 553.55,471.7 136.45,74.48 236.81,-14.79 323.36,-109.31l179.76 125.26c-97.98,105.5 -181.03,199.65 -334.32,222.42 -337.54,50.15 -585.73,-294.58 -795.8,-486.79 -116.41,-106.53 -299.84,-185.86 -455.37,-97.23l-469.76 331.05c-130.98,101.76 -261.09,190.92 -437.6,175.96 -379.95,-32.18 -538.68,-460.95 -868.97,-590.47 -77.66,-30.44 -175.74,10.27 -235.64,55.6 -295.67,223.77 -552.66,589.88 -951.09,643.46 -126.46,17 -247.14,-24.27 -320.35,-128.47 -35.33,-50.28 -49.32,-103.89 -67.13,-161.15l215.79 -46.19z"
       class="fil0 str0" /><path
       id="path9"
       d="M141.62 648.08c124.26,551.81 881.9,-144.8 1038.24,-305.25 705.53,-743.57 962.09,888.36 1659.6,254.38 288.62,-258.3 697.5,-602.68 1078.33,-230.9 220.47,215.24 629.35,731.83 962.08,277.86"
       class="fil1 str0" /><path
       id="path11"
       d="M249.52 1442.9c12.43,40.65 23.4,95.92 67.79,116.16 78.98,36.04 214.73,-29.58 276.56,-72.08l505.01 -399.49c132.06,-109.94 249.92,-226.28 433.65,-232.38 236.19,-7.85 400.46,173.95 559.01,316.27 152.72,137.1 339.19,375.87 566.16,243.81l106.72 -79.11c233.38,-179.75 470.89,-428.09 793.3,-423 128.56,2.03 254.43,45.98 355.37,123.99 195.32,150.96 331.21,350.34 553.55,471.7 136.45,74.48 236.81,-14.79 323.36,-109.31l179.76 125.25c-97.98,105.51 -181.03,199.66 -334.32,222.43 -337.54,50.14 -585.73,-294.59 -795.8,-486.8 -116.41,-106.52 -299.84,-185.85 -455.37,-97.22l-469.76 331.05c-130.98,101.76 -261.09,190.91 -437.6,175.96 -379.95,-32.18 -538.68,-460.96 -868.97,-590.47 -77.66,-30.45 -175.74,10.27 -235.64,55.6 -295.67,223.77 -552.66,589.88 -951.09,643.46 -126.46,17 -247.14,-24.28 -320.35,-128.48 -35.33,-50.27 -49.32,-103.88 -67.13,-161.15l215.79 -46.19z"
       class="fil0 str0" /><path
       id="path13"
       d="M141.62 1466c124.26,551.8 881.9,-144.8 1038.24,-305.26 705.53,-743.56 962.09,888.37 1659.6,254.38 288.62,-258.29 697.5,-602.68 1078.33,-230.89 220.47,215.24 629.35,731.82 962.08,277.85"
       class="fil1 str0" /><path
       id="path15"
       d="M249.52 2221.68c12.43,40.64 23.4,95.91 67.79,116.16 78.98,36.04 214.73,-29.58 276.56,-72.09l505.01 -399.49c132.06,-109.94 249.92,-226.27 433.65,-232.38 236.19,-7.84 400.46,173.95 559.01,316.28 152.72,137.09 339.19,375.87 566.16,243.8l106.72 -79.11c233.38,-179.74 470.89,-428.08 793.3,-423 128.56,2.03 254.43,45.98 355.37,123.99 195.32,150.96 331.21,350.34 553.55,471.7 136.45,74.48 236.81,-14.79 323.36,-109.31l179.76 125.26c-97.98,105.5 -181.03,199.65 -334.32,222.42 -337.54,50.14 -585.73,-294.59 -795.8,-486.79 -116.41,-106.53 -299.84,-185.86 -455.37,-97.23l-469.76 331.05c-130.98,101.76 -261.09,190.92 -437.6,175.96 -379.95,-32.18 -538.68,-460.95 -868.97,-590.47 -77.66,-30.44 -175.74,10.27 -235.64,55.6 -295.67,223.77 -552.66,589.88 -951.09,643.46 -126.46,17 -247.14,-24.27 -320.35,-128.47 -35.33,-50.28 -49.32,-103.89 -67.13,-161.15l215.79 -46.19z"
       class="fil0 str0" /><path
       id="path17"
       d="M141.62 2244.77c124.26,551.81 881.9,-144.8 1038.24,-305.25 705.53,-743.57 962.09,888.36 1659.6,254.38 288.62,-258.3 697.5,-602.68 1078.33,-230.9 220.47,215.24 629.35,731.83 962.08,277.86"
       class="fil1 str0" /></g></svg>