<?xml version="1.0" encoding="UTF-8"?>
<!DOCTYPE svg PUBLIC "-//W3C//DTD SVG 1.1//EN" "http://www.w3.org/Graphics/SVG/1.1/DTD/svg11.dtd">
<!-- Creator: CorelDRAW 2020 (64-Bit Evaluation Version) -->
<svg xmlns="http://www.w3.org/2000/svg" xml:space="preserve" width="60mm" height="60mm" version="1.1" style="shape-rendering:geometricPrecision; text-rendering:geometricPrecision; image-rendering:optimizeQuality; fill-rule:evenodd; clip-rule:evenodd"
viewBox="0 0 6000 6000"
 xmlns:xlink="http://www.w3.org/1999/xlink"
 xmlns:xodm="http://www.corel.com/coreldraw/odm/2003">
 <defs>
  <style type="text/css">
   <![CDATA[
    .str0 {stroke:#393185;stroke-width:7.62;stroke-miterlimit:2.61313}
    .fil2 {fill:none}
    .fil1 {fill:#393185}
    .fil0 {fill:#393185;fill-rule:nonzero}
   ]]>
  </style>
 </defs>
 <g id="Layer_x0020_1">
  <metadata id="CorelCorpID_0Corel-Layer"/>
  <path class="fil0" d="M537.48 262.43l367.27 0c82.7,0 145.74,9.12 189.31,27.74 58.4,25.05 108.43,69.69 149.9,133.98 41.73,63.92 73.48,142.42 95.24,235.11 21.57,93.04 32.44,207.37 32.44,343.7 0,119.43 -10.18,222.6 -30.56,309.21 -24.8,105.55 -60.25,191.16 -106.61,256.43 -34.74,49.74 -81.79,88.3 -141.1,116.05 -44.26,20.62 -103.6,30.78 -177.96,30.78l-377.93 0 0 -1453zm200.88 245.96l0 962.12 149.93 0c56.08,0 96.65,-4.42 121.66,-13.89 32.45,-11.82 59.56,-31.78 81.1,-60.22 21.54,-28.4 38.9,-75.42 52.6,-140.37 13.42,-64.95 20.38,-153.95 20.38,-266.24 0,-112.32 -6.96,-198.24 -20.38,-258.46 -13.7,-60.22 -32.69,-107.24 -57.02,-140.75 -24.54,-33.82 -55.61,-56.49 -93.13,-68.34 -28.06,-9.47 -82.95,-13.85 -164.99,-13.85l-90.15 0zm763.06 489.52c0,-148.18 15.05,-272.35 45.43,-372.82 22.69,-73.76 53.51,-140.4 92.69,-199.24 39.12,-58.53 82.01,-102.2 128.59,-130.6 62.1,-38.55 133.45,-57.52 214.54,-57.52 146.71,0 263.95,66.3 352.01,199.28 88.05,132.6 132.06,317.3 132.06,553.79 0,234.76 -43.79,418.14 -131.16,550.74 -87.33,132.29 -204.13,198.59 -350.12,198.59 -148.05,0 -265.76,-65.99 -353.13,-197.58 -87.33,-131.91 -130.91,-313.61 -130.91,-544.64zm206.93 -9.81c0,164.39 26.17,289.24 78.09,374.13 52.13,84.93 118.15,127.21 198.33,127.21 79.97,0 145.74,-41.94 197.18,-126.52 51.22,-84.23 76.93,-210.43 76.93,-378.9 0,-166.45 -24.99,-290.59 -74.83,-372.81 -50.06,-81.85 -116.55,-122.79 -199.28,-122.79 -82.94,0 -149.68,41.6 -200.43,124.48 -50.51,82.88 -75.99,207.74 -75.99,375.2zm917.11 727.33l0 -1453 195.58 0 407.36 970.24 0 -970.24 186.77 0 0 1453 -201.85 0 -401.09 -947.58 0 947.58 -186.77 0zm1899.6 0l-218.74 0 -86.9 -330.19 -397.83 0 -82.04 330.19 -213.16 0 387.65 -1453 212.47 0 398.55 1453zm-370.06 -574.76l-137.17 -539.28 -134.39 539.28 271.56 0zm475.27 -878.24l200.9 0 0 786.89c0,124.83 2.58,206.02 7.4,242.88 8.59,59.56 29.22,107.24 61.41,143.11 32.45,36.2 76.71,54.13 132.79,54.13 56.99,0 100.09,-16.92 129.06,-51.09 28.97,-33.83 46.33,-75.77 52.13,-125.14 6.02,-49.75 8.81,-131.95 8.81,-246.99l0 -803.79 200.91 0 0 763.19c0,174.58 -5.33,297.71 -16.24,369.78 -10.88,72.07 -30.82,132.6 -60,182.35 -29.22,49.37 -68.37,88.96 -117.02,118.4 -48.9,29.44 -112.85,43.98 -191.63,43.98 -94.98,0 -167.08,-15.89 -216.17,-48.06 -49.13,-32.13 -87.84,-73.73 -116.33,-124.82 -28.5,-51.07 -47.31,-104.86 -56.31,-161.03 -13.22,-83.23 -19.71,-206.02 -19.71,-368.75l0 -775.04z"/>
  <path class="fil1 str0" d="M719.52 2684.99c12.43,40.64 23.4,95.91 67.79,116.16 78.98,36.04 214.73,-29.58 276.56,-72.09l505.01 -399.49c132.06,-109.94 249.92,-226.27 433.65,-232.38 236.19,-7.84 400.46,173.95 559.01,316.28 152.72,137.09 339.19,375.87 566.16,243.8l106.72 -79.11c233.38,-179.74 470.89,-428.08 793.3,-423 128.56,2.03 254.43,45.98 355.37,123.99 195.32,150.96 331.21,350.34 553.55,471.7 136.45,74.48 236.81,-14.79 323.36,-109.31l179.76 125.26c-97.98,105.5 -181.03,199.65 -334.32,222.42 -337.54,50.15 -585.73,-294.58 -795.8,-486.79 -116.41,-106.53 -299.84,-185.86 -455.37,-97.23l-469.76 331.05c-130.98,101.76 -261.09,190.92 -437.6,175.96 -379.95,-32.18 -538.68,-460.95 -868.97,-590.47 -77.66,-30.44 -175.74,10.27 -235.64,55.6 -295.67,223.77 -552.66,589.88 -951.09,643.46 -126.46,17 -247.14,-24.27 -320.35,-128.47 -35.33,-50.28 -49.32,-103.89 -67.13,-161.15l215.79 -46.19z"/>
  <path class="fil2 str0" d="M611.62 2708.08c124.26,551.81 881.9,-144.8 1038.24,-305.25 705.53,-743.57 962.09,888.36 1659.6,254.38 288.62,-258.3 697.5,-602.68 1078.33,-230.9 220.47,215.24 629.35,731.83 962.08,277.86"/>
  <path class="fil1 str0" d="M719.52 3502.9c12.43,40.65 23.4,95.92 67.79,116.16 78.98,36.04 214.73,-29.58 276.56,-72.08l505.01 -399.49c132.06,-109.94 249.92,-226.28 433.65,-232.38 236.19,-7.85 400.46,173.95 559.01,316.27 152.72,137.1 339.19,375.87 566.16,243.81l106.72 -79.11c233.38,-179.75 470.89,-428.09 793.3,-423 128.56,2.03 254.43,45.98 355.37,123.99 195.32,150.96 331.21,350.34 553.55,471.7 136.45,74.48 236.81,-14.79 323.36,-109.31l179.76 125.25c-97.98,105.51 -181.03,199.66 -334.32,222.43 -337.54,50.14 -585.73,-294.59 -795.8,-486.8 -116.41,-106.52 -299.84,-185.85 -455.37,-97.22l-469.76 331.05c-130.98,101.76 -261.09,190.91 -437.6,175.96 -379.95,-32.18 -538.68,-460.96 -868.97,-590.47 -77.66,-30.45 -175.74,10.27 -235.64,55.6 -295.67,223.77 -552.66,589.88 -951.09,643.46 -126.46,17 -247.14,-24.28 -320.35,-128.48 -35.33,-50.27 -49.32,-103.88 -67.13,-161.15l215.79 -46.19z"/>
  <path class="fil2 str0" d="M611.62 3526c124.26,551.8 881.9,-144.8 1038.24,-305.26 705.53,-743.56 962.09,888.37 1659.6,254.38 288.62,-258.29 697.5,-602.68 1078.33,-230.89 220.47,215.24 629.35,731.82 962.08,277.85"/>
  <path class="fil1 str0" d="M719.52 4281.68c12.43,40.64 23.4,95.91 67.79,116.16 78.98,36.04 214.73,-29.58 276.56,-72.09l505.01 -399.49c132.06,-109.94 249.92,-226.27 433.65,-232.38 236.19,-7.84 400.46,173.95 559.01,316.28 152.72,137.09 339.19,375.87 566.16,243.8l106.72 -79.11c233.38,-179.74 470.89,-428.08 793.3,-423 128.56,2.03 254.43,45.98 355.37,123.99 195.32,150.96 331.21,350.34 553.55,471.7 136.45,74.48 236.81,-14.79 323.36,-109.31l179.76 125.26c-97.98,105.5 -181.03,199.65 -334.32,222.42 -337.54,50.14 -585.73,-294.59 -795.8,-486.79 -116.41,-106.53 -299.84,-185.86 -455.37,-97.23l-469.76 331.05c-130.98,101.76 -261.09,190.92 -437.6,175.96 -379.95,-32.18 -538.68,-460.95 -868.97,-590.47 -77.66,-30.44 -175.74,10.27 -235.64,55.6 -295.67,223.77 -552.66,589.88 -951.09,643.46 -126.46,17 -247.14,-24.27 -320.35,-128.47 -35.33,-50.28 -49.32,-103.89 -67.13,-161.15l215.79 -46.19z"/>
  <path class="fil2 str0" d="M611.62 4304.77c124.26,551.81 881.9,-144.8 1038.24,-305.25 705.53,-743.57 962.09,888.36 1659.6,254.38 288.62,-258.3 697.5,-602.68 1078.33,-230.9 220.47,215.24 629.35,731.83 962.08,277.86"/>
  <path class="fil0" d="M539.02 4997.56l280.09 0c55.45,0 96.93,2.51 124.17,7.71 27.24,5.02 51.53,15.62 73.07,31.73 21.53,16.14 39.31,37.49 53.7,64.39 14.32,26.7 21.53,56.83 21.53,90 0,36.01 -8.84,69.18 -26.45,99.31 -17.78,30.12 -41.76,52.69 -71.95,67.77 42.6,13.64 75.55,36.93 98.4,69.75 22.98,32.98 34.39,71.69 34.39,116.17 0,34.95 -7.33,69.03 -22.19,102.2 -14.83,32.97 -35.05,59.49 -60.69,79.21 -25.61,19.75 -57.24,31.91 -94.95,36.58 -23.48,2.7 -80.41,4.49 -170.63,5.21l-238.49 0 0 -770.03zm141.6 128.18l0 178.06 92.63 0c55.17,0 89.43,-0.91 102.82,-2.7 24.14,-3.04 43.19,-12.19 57.08,-27.43 13.86,-15.23 20.72,-35.33 20.72,-60.25 0,-23.85 -5.86,-43.19 -17.8,-58.08 -12.07,-14.89 -29.85,-23.86 -53.33,-26.9 -14.04,-1.79 -54.32,-2.7 -120.9,-2.7l-81.22 0zm0 306.24l0 205.8 130.84 0c51.03,0 83.35,-1.41 97.05,-4.64 21.04,-4.14 38.18,-14.55 51.38,-30.66 13.2,-16.33 19.91,-38.21 19.91,-65.45 0,-23.14 -5.21,-42.67 -15.33,-58.81 -10.28,-16.12 -24.99,-27.96 -44.23,-35.3 -19.22,-7.37 -61.16,-10.94 -125.46,-10.94l-114.16 0zm564.94 335.61l0 -770.03 519.43 0 0 130.35 -377.99 0 0 170.69 351.72 0 0 129.62 -351.72 0 0 209.56 391.38 0 0 129.81 -532.82 0zm624.17 -380.25c0,-78.53 10.59,-144.32 32,-197.58 15.96,-39.09 37.68,-74.39 65.24,-105.58 27.58,-31.04 57.74,-54.17 90.53,-69.22 43.73,-20.44 93.98,-30.47 151.06,-30.47 103.29,0 185.83,35.14 247.84,105.58 61.97,70.28 92.98,168.18 92.98,293.51 0,124.42 -30.82,221.56 -92.32,291.85 -61.51,70.12 -143.76,105.23 -246.52,105.23 -104.26,0 -187.15,-34.95 -248.62,-104.67 -61.5,-69.94 -92.19,-166.21 -92.19,-288.65zm145.7 -5.2c0,87.11 18.4,153.29 54.95,198.27 36.71,45.02 83.23,67.43 139.66,67.43 56.3,0 102.6,-22.26 138.84,-67.05 36.05,-44.64 54.17,-111.54 54.17,-200.82 0,-88.21 -17.62,-154.01 -52.7,-197.55 -35.24,-43.38 -82.07,-65.08 -140.31,-65.08 -58.4,0 -105.39,22.04 -141.1,65.96 -35.58,43.92 -53.51,110.09 -53.51,198.84zm970.34 102.35l0 -129.78 304.92 0 0 306.73c-29.72,31.57 -72.6,59.35 -128.91,83.39 -56.26,23.82 -113.19,35.83 -170.78,35.83 -73.26,0 -137.21,-16.83 -191.69,-50.53 -54.51,-33.89 -95.45,-82.13 -122.85,-145.05 -27.4,-62.94 -41.13,-131.25 -41.13,-205.11 0,-80.12 15.36,-151.5 45.83,-213.88 30.69,-62.2 75.39,-110.06 134.45,-143.23 44.86,-25.64 100.85,-38.37 167.71,-38.37 86.96,0 154.99,20.06 203.79,60.06 48.91,40.16 80.41,95.55 94.42,166.37l-140.43 28.87c-9.97,-37.84 -28.56,-67.78 -55.8,-89.66 -27.24,-21.88 -61.19,-32.79 -101.98,-32.79 -61.82,0 -110.94,21.51 -147.49,64.52 -36.52,43.22 -54.64,107.05 -54.64,191.84 0,91.26 18.43,159.91 55.49,205.64 36.83,45.71 85.29,68.5 145.17,68.5 29.72,0 59.4,-6.46 89.25,-19.19 29.68,-12.72 55.29,-28.33 76.67,-46.45l0 -97.71 -162 0zm435.76 283.1l0 -770.03 297.87 0c74.89,0 129.21,6.99 163.16,20.82 33.92,13.79 61.16,38.37 81.57,73.67 20.41,35.51 30.5,75.83 30.5,121.37 0,57.75 -15.49,105.61 -46.33,143.26 -30.85,37.46 -77.15,61.32 -138.65,70.97 30.66,19.75 55.92,41.26 75.83,64.74 19.9,23.48 46.67,65.07 80.44,124.95l85.64 150.25 -169.19 0 -102.28 -167.62c-36.37,-59.9 -61.16,-97.55 -74.55,-113.13 -13.38,-15.61 -27.58,-26.18 -42.57,-32.1 -15.01,-5.74 -38.65,-8.59 -71.28,-8.59l-28.56 0 0 321.44 -141.6 0zm141.6 -444.45l104.58 0c67.83,0 110.28,-3.04 127.24,-9.31 16.8,-6.27 30,-17.21 39.65,-32.63 9.44,-15.43 14.36,-34.61 14.36,-57.75 0,-25.98 -6.37,-46.77 -18.94,-62.72 -12.57,-15.96 -30.34,-26.02 -53.35,-30.32 -11.41,-1.59 -45.86,-2.5 -103.26,-2.5l-110.28 0 0 195.23zm1196.79 444.45l-154.01 0 -61.16 -174.98 -280.12 0 -57.74 174.98 -150.1 0 272.92 -770.03 149.62 0 280.59 770.03zm-260.53 -304.61l-96.58 -285.76 -94.64 285.76 191.22 0zm335.08 -465.42l258.58 0c58.25,0 102.6,4.86 133.29,14.71 41.1,13.26 76.34,36.92 105.55,71 29.34,33.88 51.72,75.48 67.02,124.6 15.21,49.31 22.85,109.91 22.85,182.13 0,63.3 -7.17,118 -21.53,163.89 -17.46,55.92 -42.41,101.29 -75.05,135.89 -24.48,26.37 -57.55,46.8 -99.34,61.51 -31.16,10.91 -72.91,16.3 -125.29,16.3l-266.08 0 0 -770.03zm141.47 130.35l0 509.87 105.51 0c39.5,0 68.06,-2.32 85.65,-7.34 22.85,-6.27 41.94,-16.86 57.11,-31.91 15.17,-15.08 27.4,-40 37.02,-74.42 9.47,-34.42 14.39,-81.57 14.39,-141.1 0,-59.49 -4.92,-105.04 -14.39,-136.95 -9.62,-31.92 -22.97,-56.84 -40.09,-74.58 -17.34,-17.93 -39.18,-29.94 -65.61,-36.24 -19.75,-5.01 -58.4,-7.33 -116.18,-7.33l-63.41 0z"/>
 </g>
</svg>
